<?xml version="1.0" standalone="no"?>
<!DOCTYPE svg PUBLIC "-//W3C//DTD SVG 20010904//EN"
 "http://www.w3.org/TR/2001/REC-SVG-20010904/DTD/svg10.dtd">
<svg version="1.0" xmlns="http://www.w3.org/2000/svg"
 width="512.000000pt" height="512.000000pt" viewBox="0 0 512.000000 512.000000"
 preserveAspectRatio="xMidYMid meet">
<metadata>
Created by potrace 1.14, written by Peter Selinger 2001-2017
</metadata>
<g transform="translate(0.000000,512.000000) scale(0.100000,-0.100000)"
fill="#000000" stroke="none">
<path d="M2368 5006 c-1 -2 -41 -6 -86 -10 -334 -25 -781 -237 -808 -383 -16
-86 53 -136 232 -167 57 -10 209 -57 269 -83 118 -52 214 -126 296 -230 20
-25 81 -135 77 -138 -2 -1 -30 -5 -63 -8 -165 -16 -340 -85 -520 -207 -174
-118 -275 -246 -535 -680 -219 -365 -285 -436 -564 -602 -70 -42 -89 -84 -73
-161 46 -219 171 -414 307 -478 28 -13 50 -27 50 -31 0 -24 -84 -143 -141
-201 -79 -79 -164 -123 -305 -158 -98 -24 -169 -56 -198 -88 -34 -37 -54 -116
-45 -169 21 -112 141 -304 270 -431 92 -90 166 -144 261 -190 111 -54 200 -74
324 -74 l100 1 32 -62 c44 -84 84 -130 137 -156 53 -26 121 -28 184 -6 49 18
151 88 195 135 l29 30 36 -28 c148 -117 515 -241 826 -278 22 -2 72 -8 110
-13 39 -5 147 -7 240 -5 243 4 360 38 400 115 17 33 19 78 5 114 -5 14 -8 26
-7 26 1 0 48 -9 104 -19 114 -20 317 -25 402 -10 88 17 156 47 197 88 36 35
44 38 99 40 176 4 409 121 570 285 100 102 145 187 151 281 7 118 -21 155
-236 314 -214 158 -327 249 -400 321 l-63 62 29 19 c55 36 156 144 209 224 83
124 119 208 123 287 5 85 -17 126 -80 152 -113 46 -157 78 -244 177 -35 40
-117 160 -163 239 -18 30 -36 62 -41 70 -5 8 -35 60 -66 115 -95 167 -187 319
-206 341 -10 11 -18 24 -18 28 0 6 -38 64 -50 76 -3 3 -25 32 -50 65 -61 83
-202 222 -281 276 -78 55 -174 101 -255 125 -32 9 -60 17 -61 18 -2 2 8 25 21
52 114 237 55 528 -153 756 -116 127 -287 207 -477 224 -38 3 -74 7 -81 9 -6
2 -13 2 -15 1z"/>
</g>
</svg>
